HIERARCHY
ROOT pelvis
{
  OFFSET 0 0 0
  CHANNELS 6 Xposition Yposition Zposition Zrotation Xrotation Yrotation
  JOINT pelvis_right_femur
  {
    OFFSET -11.43119 -3.542788 0.2090856
    CHANNELS 3 Zrotation Xrotation Yrotation
    JOINT right_femur_tibia
    {
      OFFSET -1.028693 -40.73281 5
      CHANNELS 3 Zrotation Xrotation Yrotation
      JOINT right_tibia_foot
      {
        OFFSET -0.5013517 -42.05707 -5
        CHANNELS 3 Zrotation Xrotation Yrotation
        End Site
        {
          OFFSET 0 -5 10
        }
      }
    }
  }
  JOINT pelvis_left_femur
  {
    OFFSET 11.43119 -3.542788 0.2090856
    CHANNELS 3 Zrotation Xrotation Yrotation
    JOINT left_femur_tibia
    {
      OFFSET 1.028693 -40.73281 5
      CHANNELS 3 Zrotation Xrotation Yrotation
      JOINT left_tibia_foot
      {
        OFFSET 0.3200228 -42.98253 -5
        CHANNELS 3 Zrotation Xrotation Yrotation
        End Site
        {
          OFFSET 0 -5 10
        }
      }
    }
  }
  JOINT pelvis_spine1
  {
    OFFSET 0 8.64413 -3.209807
    CHANNELS 3 Zrotation Xrotation Yrotation
    JOINT spine1
    {
      OFFSET 0 29.53957 -1.762685
      CHANNELS 3 Zrotation Xrotation Yrotation
      JOINT spine2
      {
        OFFSET 0 16.36153 -0.1422377
        CHANNELS 3 Zrotation Xrotation Yrotation
        JOINT neck
        {
          OFFSET 0 11.60093 5
          CHANNELS 3 Zrotation Xrotation Yrotation
          End Site
          {
            OFFSET 0 20 0
          }
        }
      }
      JOINT right_manubrium
      {
        OFFSET -4.671311 15.89868 4
        CHANNELS 3 Zrotation Xrotation Yrotation
        JOINT right_clavicle
        {
          OFFSET -13.601 1.573642 -2.74176
          CHANNELS 3 Zrotation Xrotation Yrotation
          JOINT right_humerus
          {
            OFFSET -0.06331682 -27.72702 2.252146
            CHANNELS 3 Zrotation Xrotation Yrotation
            JOINT right_radius
            {
              OFFSET -0.5696302 -23.92083 0.4042105
              CHANNELS 3 Zrotation Xrotation Yrotation
              End Site
              {
                OFFSET 0 -15 0
              }
            }
          }
        }
      }
      JOINT left_manubrium
      {
        OFFSET 4.671311 15.89868 4
        CHANNELS 3 Zrotation Xrotation Yrotation
        JOINT left_clavicle
        {
          OFFSET 13.601 1.573642 -2.74176
          CHANNELS 3 Zrotation Xrotation Yrotation
          JOINT left_humerus
          {
            OFFSET 0.000209614 -29.01858 1.101395
            CHANNELS 3 Zrotation Xrotation Yrotation
            JOINT left_radius
            {
              OFFSET -0.2288314 -24.59216 1.790347
              CHANNELS 3 Zrotation Xrotation Yrotation
              End Site
              {
                OFFSET 0 -15 0
              }
            }
          }
        }
      }
    }
  }
}
MOTION
Frames: 11
Frame Time: 0.0416666666667
-0.02457044 48.36948 0.06120485 -4.638511 -19.08105 -2.492525 -53.99049 -60.40603 -54.35016 -180 85.67936 -180 4.703044 5.225119 -0.6753507 70.10225 -51.56873 64.81265 -180 79.83124 -180 -4.523543 2.926426 -19.58261 2.898673 22.00598 -1.196314 5.336248 14.68245 -9.659651 -10.94303 8.343949 8.372736 7.677012 -32.44605 2.186821 22.39854 -7.669606 22.35781 -61.65284 -31.18829 11.5511 0 -73.70429 0 16.19817 -0.6997152 30.7567 -27.93693 -29.52506 -5.211414 55.23728 -22.60398 -23.1407 0 -75.36745 0 -11.32334 -9.203013 -2.716176
-0.01617718 48.37405 0.09502125 -4.605066 -19.0195 -2.581037 -54.09539 -60.50808 -54.42702 -180 85.64948 -180 4.696384 5.259888 -0.6363935 70.13005 -51.51844 64.86941 -180 79.78863 -180 -4.562061 2.882915 -19.51788 2.879206 21.92945 -1.344987 5.585996 14.62522 -9.849711 -10.68677 8.255157 8.448859 7.722891 -32.71632 2.367155 22.41529 -7.585744 22.56635 -61.12455 -31.27745 11.40803 0 -73.85517 0 16.6817 0.4962282 32.00073 -28.14932 -29.14565 -5.562222 54.69147 -23.11189 -23.77093 0 -75.80888 0 -10.38582 -10.67643 -0.5288689
0.007420002 48.37013 0.1174877 -4.54952 -18.91569 -2.676487 -54.2932 -60.6508 -54.58128 -180 85.64656 -180 4.691068 5.293007 -0.6076791 70.1662 -51.50139 64.97439 -180 79.75247 -180 -4.604614 2.835014 -19.45283 2.856407 21.86623 -1.542235 5.794009 14.54383 -10.05773 -10.46614 8.098727 8.558181 7.749121 -33.0132 2.571507 22.34413 -7.527896 22.84562 -60.66427 -31.43011 11.32573 0 -73.92226 0 17.11254 1.58355 33.09942 -28.35602 -28.7676 -5.925411 54.20958 -23.48026 -24.2842 0 -75.7947 0 -9.289001 -11.85577 1.557961
0.01381241 48.35919 0.1326594 -4.477247 -18.78163 -2.758216 -54.54301 -60.83551 -54.76689 -180 85.62708 -180 4.688893 5.314167 -0.579329 70.23105 -51.51476 65.11351 -180 79.73979 -180 -4.647046 2.785279 -19.39332 2.799695 21.82641 -1.721584 5.95356 14.47335 -10.27283 -10.20683 7.868997 8.675622 7.792742 -33.32623 2.803606 22.20648 -7.472336 23.09915 -60.23231 -31.59188 11.27061 0 -74.01362 0 17.49009 2.54938 34.06949 -28.60476 -28.4905 -6.213927 53.89832 -23.59944 -24.44286 0 -75.2805 0 -7.972459 -12.81356 3.577872
0.009623895 48.34985 0.1336668 -4.384388 -18.62227 -2.8275 -54.88745 -61.03221 -55.05915 -180 85.60008 -180 4.697486 5.3491 -0.5639607 70.33107 -51.54751 65.31092 -180 79.7247 -180 -4.682783 2.760052 -19.32742 2.721015 21.74894 -1.822563 6.054029 14.40758 -10.44789 -9.920582 7.67926 8.785328 7.832255 -33.58169 3.030659 22.0285 -7.417679 23.28054 -59.7899 -31.71115 11.23524 0 -74.14796 0 17.80864 3.394737 34.92459 -28.83179 -28.28487 -6.347468 53.70673 -23.61713 -24.40209 0 -74.9862 0 -6.611417 -13.70631 5.383853
-0.007835695 48.32951 0.130977 -4.25082 -18.45177 -2.878669 -55.35758 -61.23834 -55.46618 -180 85.5394 -180 4.705092 5.402316 -0.5420635 70.42335 -51.58369 65.55111 -180 79.71815 -180 -4.728095 2.741432 -19.24862 2.576103 21.61159 -1.852855 6.12196 14.35972 -10.54899 -9.604546 7.561643 8.867868 7.871114 -33.74215 3.225109 21.7971 -7.382383 23.41489 -59.37673 -31.75671 11.15038 0 -74.23443 0 18.05839 4.167794 35.66595 -28.88141 -28.08075 -6.282645 53.68766 -23.5687 -24.28102 0 -75.06195 0 -5.38023 -14.55719 6.912048
-0.02445756 48.3082 0.1297783 -4.070923 -18.25395 -2.932976 -55.9335 -61.46531 -55.92954 -180 85.48884 -180 4.709327 5.441748 -0.4902096 70.47934 -51.61559 65.80608 -180 79.73274 -180 -4.77694 2.719094 -19.17249 2.388153 21.43566 -1.80829 6.190503 14.30661 -10.58541 -9.298877 7.458936 8.944175 7.881076 -33.85093 3.404057 21.51472 -7.358931 23.53969 -59.03214 -31.73527 11.01849 0 -74.31476 0 18.27065 4.853073 36.31249 -28.77206 -27.94737 -6.129014 53.86664 -23.47986 -24.01507 0 -75.28591 0 -4.329458 -15.34279 8.212507
-0.0304802 48.27189 0.09988133 -3.829556 -18.02995 -3.002788 -56.68474 -61.75256 -56.52167 -180 85.43647 -180 4.712404 5.503433 -0.439203 70.54314 -51.65898 66.15455 -180 79.75934 -180 -4.836595 2.711508 -19.09411 2.133391 21.27306 -1.656655 6.294863 14.1748 -10.61821 -9.060932 7.387395 9.02365 7.81248 -33.85198 3.565601 21.20135 -7.328737 23.62474 -58.73988 -31.66726 10.88558 0 -74.4641 0 18.45173 5.45829 36.88244 -28.48134 -27.86697 -5.920411 54.18982 -23.35224 -23.60529 0 -75.65848 0 -3.436672 -16.05735 9.340338
-0.06355641 48.24862 0.1274071 -3.48537 -17.76548 -3.100958 -57.58012 -62.09639 -57.16944 -180 85.31548 -180 4.710077 5.558255 -0.3918802 70.53282 -51.59025 66.51104 -180 79.77526 -180 -4.899717 2.700257 -19.03136 1.738608 20.97136 -1.473856 6.424313 14.12853 -10.58835 -8.870767 7.322635 9.113291 7.676486 -33.80647 3.743374 20.96616 -7.272134 23.65525 -58.47498 -31.57602 10.74479 0 -74.64441 0 18.61534 5.988686 37.3786 -28.03343 -27.77524 -5.509838 54.67458 -23.01886 -22.99497 0 -76.11082 0 -2.683359 -16.71521 10.34675
-0.20235 48.09092 0.1087517 -2.967515 -17.50649 -3.25049 -58.79316 -62.66569 -58.0646 -180 85.09861 -180 4.723017 5.613791 -0.3617986 70.63469 -51.4869 67.02289 -180 79.77271 -180 -4.97463 2.707172 -18.97039 1.030383 20.71453 -1.089984 6.537988 13.98517 -10.50239 -8.681662 7.287568 9.215433 7.48393 -33.62692 3.958427 20.78445 -7.247944 23.62191 -58.21741 -31.53027 10.6218 0 -74.87932 0 18.7524 6.458957 37.80508 -27.36163 -27.77997 -4.864579 55.38562 -22.49414 -22.06462 0 -76.65574 0 -2.047156 -17.34006 11.25337
-0.2192528 48.05119 0.1057855 -2.658909 -17.28175 -3.341659 -59.66177 -63.0015 -58.69198 -180 85.00559 -180 4.727547 5.672541 -0.3393762 70.65408 -51.43704 67.3905 -180 79.78438 -180 -5.028308 2.700348 -18.91986 0.7084339 20.50183 -0.8792858 6.648408 13.9325 -10.43491 -8.455434 7.261874 9.326153 7.26743 -33.44911 4.248165 20.63435 -7.235324 23.54238 -58.03099 -31.48995 10.50247 0 -75.1435 0 18.88772 6.878675 38.18065 -26.74671 -27.93911 -4.041899 56.30136 -21.76808 -20.76643 0 -77.18977 0 -1.514188 -17.93085 12.07268
